<svg viewBox="0 0 1120 1120" fill="none" xmlns="http://www.w3.org/2000/svg">
<path d="M246 901H1099L975.685 777.685C972.685 774.685 968.616 773 964.373 773H381C372.163 773 365 765.837 365 757V173.627C365 169.384 363.315 165.315 360.315 162.315L230 32V885C230 893.837 237.163 901 246 901Z" fill="#EC1D25"/>
<path d="M874 219H21L144.315 342.315C147.315 345.315 151.384 347 155.627 347H739C747.837 347 755 354.163 755 363V946.373C755 950.616 756.685 954.685 759.685 957.685L890 1088V235C890 226.163 882.837 219 874 219Z" fill="#343DED"/>
</svg>
