<svg viewBox="0 0 59 50">
      <g id="Vector">
        <g id="Vector_2">
          <path
            d="M48.9463 8.18686C54.3098 8.18686 58.6578 12.5349 58.6578 17.8984V40.269C58.6578 48.9139 48.2119 53.2501 42.0897 47.1466L19.6506 24.776C13.5182 18.6624 17.8479 8.18686 26.5072 8.18686H48.9463Z"
            fill="#928EF3"
          />
          <path
            d="M9.71156 41.8131C4.34802 41.8131 2.42459e-06 37.4651 1.9557e-06 32.1016L0 9.73102C-7.55762e-07 1.08611 10.4459 -3.2501 16.5682 2.85342L39.0072 25.224C45.1396 31.3376 40.8099 41.8131 32.1507 41.8131L9.71156 41.8131Z"
            fill="#F1808E"
          />
          <path
            d="M22.6771 8.94372L39.0072 25.224C44.1494 30.3505 41.9353 38.544 35.9807 41.0563L19.6506 24.776C14.5084 19.6495 16.7225 11.456 22.6771 8.94372Z"
            fill="#BB4788"
          />
        </g>
      </g>
    </svg>